<svg xmlns="http://www.w3.org/2000/svg" xmlns:xlink="http://www.w3.org/1999/xlink" version="1.1"><metadata/><defs><font id="transatmedium" horiz-adv-x="1642"><font-face ascent="1485" descent="-563" units-per-em="2048"/><glyph d="M55 676v20l21 142h108v295q0 76 20 137t54 98.5t77.5 62.5t92 33t95 6t89.5 -14l-24 -166q-76 22 -140 -23.5t-63 -150.5v-278h211v-162h-211v-676h-201v676h-129zM713 1182q0 60 42.5 102.5t100.5 42.5q60 0 102.5 -42.5t42.5 -102.5q0 -61 -42.5 -102.5t-102.5 -41.5 q-58 0 -100.5 41.5t-42.5 102.5zM758 0v838h200v-838h-200z" horiz-adv-x="1089" unicode="ﬁ"/><glyph d="M55 676v20l21 142h108v295q0 76 20 137t54 98.5t77.5 62.5t92 33t95 6t89.5 -14l-24 -166q-76 22 -140 -23.5t-63 -150.5v-278h211v-162h-211v-676h-201v676h-129zM786 0v1438l183 24h18v-1462h-201z" horiz-adv-x="1126" unicode="ﬂ"/><glyph d="M55 676v20l21 142h108v243q0 91 28.5 159.5t74 105.5t103 56t114 18.5t108.5 -15.5l-24 -166q-76 22 -140 -23.5t-63 -150.5v-227h373v295q0 76 20 137t54 98.5t77.5 62.5t92 33t95 6t89.5 -14l-25 -166q-76 22 -140 -23.5t-63 -150.5v-278h211v-162h-211v-676h-200v676 h-373v-676h-201v676h-129zM1284 1182q0 60 43 102.5t100 42.5q60 0 103 -42.5t43 -102.5q0 -61 -42.5 -102.5t-103.5 -41.5q-58 0 -100.5 41.5t-42.5 102.5zM1329 0v838h201v-838h-201z" horiz-adv-x="1660" unicode="ﬃ"/><glyph d="M55 676v20l21 142h108v243q0 91 28.5 159.5t74 105.5t103 56t114 18.5t108.5 -15.5l-24 -166q-76 22 -140 -23.5t-63 -150.5v-227h373v295q0 76 20 137t54 98.5t77.5 62.5t92 33t95 6t89.5 -14l-25 -166q-76 22 -140 -23.5t-63 -150.5v-278h211v-162h-211v-676h-200v676 h-373v-676h-201v676h-129zM1358 0v1438l182 24h19v-1462h-201z" horiz-adv-x="1697" unicode="ﬄ"/><glyph horiz-adv-x="0"/><glyph horiz-adv-x="682"/><glyph horiz-adv-x="491"/><glyph horiz-adv-x="491"/><glyph horiz-adv-x="491"/><glyph d="M158 1333h301l-97 -913h-106zM160 127q0 63 43.5 107.5t105.5 44.5q63 0 107.5 -44.5t44.5 -107.5q0 -64 -44 -105.5t-108 -41.5q-62 0 -105.5 41.5t-43.5 105.5z" horiz-adv-x="618" unicode="!"/><glyph d="M82 1438h270l-96 -627h-82zM453 1438h270l-96 -627h-82z" horiz-adv-x="804" unicode="&quot;"/><glyph d="M72 330v178h231l82 332h-195v178h236l78 315h182l-76 -315h224l77 315h183q-28 -118 -78 -315h186v-178h-225l-82 -332h190v-178h-229l-76 -330h-190l80 330h-219l-80 -330h-189l80 330h-190zM489 508h224l82 332h-224z" horiz-adv-x="1273" unicode="#"/><glyph d="M102 90l78 166q69 -49 131.5 -73.5t151.5 -24.5q106 0 162.5 52.5t56.5 127.5q0 41 -15 75t-52.5 68.5t-74 60.5t-106.5 70q-133 84 -177 121q-119 100 -134 234q-2 22 -2 45q0 55 18 109t52.5 102t91.5 82.5t129 44.5v262h176v-260q68 -9 136.5 -31.5t113.5 -48.5 l-56 -172q-127 74 -245 74q-96 0 -147.5 -49t-51.5 -126q0 -30 14 -56.5t46.5 -54t62 -47.5t84.5 -54q12 -7 18 -11q186 -114 261.5 -212t72.5 -224q-4 -147 -89 -241t-214 -122v-253h-176v247q-194 17 -316 119z" horiz-adv-x="1001" unicode="$"/><glyph d="M66 1040q0 138 96 227t225 89t222 -88.5t93 -227.5q0 -137 -94 -225t-223 -88t-224 88t-95 225zM145 63l1074 1303l124 -104l-1069 -1299zM238 1040q0 -73 42 -123.5t109 -50.5q68 0 105.5 50t37.5 124q0 77 -38 128t-107 51q-66 0 -107.5 -52t-41.5 -127zM809 295 q0 137 96 225t225 88t221.5 -88t92.5 -225q0 -138 -93.5 -226.5t-222.5 -88.5t-224 88.5t-95 226.5zM981 295q0 -73 41 -124.5t108 -51.5q68 0 107 51t39 125q0 75 -39.5 125.5t-108.5 50.5q-66 0 -106.5 -51t-40.5 -125z" horiz-adv-x="1511" unicode="%"/><glyph d="M86.5 311q-11.5 106 30.5 197.5t125 161.5l120 102l-34 51q-37 54 -54.5 108t-13.5 128q9 139 111.5 220t240.5 81q125 0 223.5 -77.5t129.5 -195.5l-172 -63q-52 152 -177 152q-67 0 -108 -38t-47 -102q-4 -38 8 -73t24 -51.5t44 -55.5l346 -442l219 196l125 -137 l-223 -205l210 -268h-251l-103 137l-90 -71q-50 -41 -129 -65t-164.5 -25t-170 33t-136.5 102q-72 94 -83.5 200zM283 380.5q-8 -81.5 49 -153.5q58 -71 154.5 -69t177.5 71l71 58l-264 331l-111 -96q-69 -60 -77 -141.5z" horiz-adv-x="1318" unicode="&amp;"/><glyph d="M82 1438h270l-96 -627h-82z" horiz-adv-x="434" unicode="'"/><glyph d="M143 606q0 265 127 501.5t348 389.5l109 -125q-356 -327 -356 -766q0 -131 30.5 -255.5t83.5 -224.5t113 -179t129 -142l-109 -122q-220 162 -347.5 408.5t-127.5 514.5z" horiz-adv-x="825" unicode="("/><glyph d="M98 -195q69 63 129 142t113 179t84 224.5t31 255.5q0 438 -357 766l109 125q221 -153 348 -389.5t127 -501.5q0 -268 -127.5 -514.5t-347.5 -408.5z" horiz-adv-x="825" unicode=")"/><glyph d="M102 1010l222 100l-222 98l76 133l197 -141l-25 238h150l-23 -238l197 141l74 -131l-224 -100l226 -98l-78 -131l-195 141l23 -238h-150l25 238l-197 -141z" horiz-adv-x="851" unicode="*"/><glyph d="M82 610v178h313v314h180v-314h312v-178h-312v-313h-180v313h-313z" horiz-adv-x="968" unicode="+"/><glyph d="M86 -313l74 581h254l2 -30l-256 -570z" horiz-adv-x="528" unicode=","/><glyph d="M82 346v189l543 79v-188z" horiz-adv-x="706" unicode="-"/><glyph d="M113 127q0 63 43 107.5t104 44.5q63 0 107.5 -44.5t44.5 -107.5q0 -64 -44 -105.5t-108 -41.5q-62 0 -104.5 41.5t-42.5 105.5z" horiz-adv-x="524" unicode="."/><glyph d="M-35 -266l711 1775l164 -71l-711 -1774z" horiz-adv-x="872" unicode="/"/><glyph d="M66 670q0 198 68 355t194.5 247t289.5 90t288.5 -90t193 -247t67.5 -355q0 -197 -67 -355.5t-193 -251t-289 -92.5t-289.5 92.5t-194.5 251t-68 355.5zM291 670q0 -231 91 -375.5t236 -144.5q143 0 233.5 144.5t90.5 375.5q0 232 -90.5 374t-233.5 142q-145 0 -236 -142 t-91 -374z" horiz-adv-x="1234" unicode="0"/><glyph d="M86 1143l406 207h34v-1350h-211v1032l-145 -74z" horiz-adv-x="727" unicode="1"/><glyph d="M41 33q52 49 142 135t135.5 129.5t116.5 113.5t107 111.5t81.5 99t67 99t37 88t15.5 88.5q0 70 -23 125t-61.5 87t-83.5 48.5t-94 16.5q-80 1 -153 -38.5t-111 -91.5h-29l-100 130q62 79 173 132.5t247 53.5q80 0 157 -27.5t143.5 -80t107 -141t40.5 -200.5 q1 -87 -22 -162.5t-86.5 -165.5t-142 -176t-220.5 -227h502v-180h-932z" horiz-adv-x="1085" unicode="2"/><glyph d="M82 66l57 159l29 2q129 -84 291 -84q56 0 110.5 16.5t101 48.5t75 85t28.5 119q0 139 -123 213.5t-319 29.5l-27 35l324 461h-498v182h807l14 -28l-352 -506q66 2 132.5 -23.5t123 -73t92 -124t35.5 -168.5q0 -200 -136 -319.5t-355 -119.5q-83 0 -146 7t-114 23.5 t-76 28t-74 36.5z" horiz-adv-x="1075" unicode="3"/><glyph d="M20 268l846 1086l70 -19v-946h197v-172h-197v-217h-215v217h-658zM350 389h371l-2 488z" horiz-adv-x="1200" unicode="4"/><glyph d="M82 68l57 161l29 2q43 -34 118 -59t175 -25q129 0 221 74.5t92 204.5q0 85 -42 146.5t-107 89.5t-144 28q-90 0 -164.5 -33.5t-121.5 -74.5l-50 14l74 737h696v-182h-514l-34 -344q55 24 157 31t187 -17q117 -39 196 -141t80 -256q1 -71 -18.5 -136.5t-60.5 -123.5 t-100 -100.5t-143 -67.5t-184 -25q-149 0 -249.5 30t-149.5 67z" horiz-adv-x="1081" unicode="5"/><glyph d="M82 481q0 131 28.5 247t77 203t113.5 159t137 120.5t150 82t149 49.5t137 18l41 -162l-20 -24q-201 -6 -365 -143t-196 -329q49 66 129 97.5t164 31.5q172 0 291.5 -118t119.5 -297q0 -192 -132.5 -318.5t-340.5 -126.5q-106 0 -194.5 35.5t-152.5 101t-99.5 161.5 t-36.5 212zM303 408q0 -109 76 -186t186 -77q111 0 185.5 76.5t74.5 186.5t-74.5 186t-183.5 76q-114 0 -189 -76t-75 -186z" horiz-adv-x="1120" unicode="6"/><glyph d="M86 1153v180h879l18 -30l-547 -1303h-241l503 1153h-612z" horiz-adv-x="1024" unicode="7"/><glyph d="M76 397q0 123 73.5 221t176.5 127q-152 98 -152 269q0 148 110 247t287 99q174 0 284 -99.5t110 -246.5q0 -169 -150 -266q102 -27 175 -127.5t73 -223.5q0 -185 -137 -305.5t-359 -120.5q-217 0 -354 120.5t-137 305.5zM293 401q0 -111 80 -181t198 -70q120 0 197.5 70 t77.5 181q0 113 -79.5 182.5t-199.5 69.5t-197 -69.5t-77 -182.5zM369 995q0 -81 58.5 -136.5t143.5 -55.5t142 55t57 137q0 83 -59.5 137t-141.5 54q-85 0 -142.5 -54t-57.5 -137z" horiz-adv-x="1140" unicode="8"/><glyph d="M82 915q0 192 132 318.5t339 126.5q106 0 195 -35.5t153 -101t100 -161.5t37 -212q0 -131 -28.5 -247t-77 -203t-114 -159t-137.5 -120.5t-150 -82t-149.5 -49.5t-137.5 -18l-41 162l22 25q131 4 252 67t204.5 170.5t104.5 233.5q-49 -66 -129 -97.5t-165 -31.5 q-172 0 -291 118t-119 297zM295 924q0 -111 74 -186.5t184 -75.5q113 0 188.5 76t75.5 186q0 109 -76.5 185.5t-185.5 76.5q-113 0 -186.5 -76t-73.5 -186z" horiz-adv-x="1120" unicode="9"/><glyph d="M113 127q0 63 43 107.5t104 44.5q63 0 107.5 -44.5t44.5 -107.5q0 -64 -44 -105.5t-108 -41.5q-62 0 -104.5 41.5t-42.5 105.5zM113 711q0 63 43 107t104 44q63 0 107.5 -44t44.5 -107q0 -64 -44 -106t-108 -42q-62 0 -104.5 42t-42.5 106z" horiz-adv-x="524" unicode=":"/><glyph d="M76 -313l74 581h253l3 -30l-256 -570zM119 711q0 63 43 107t104 44q63 0 107.5 -44t44.5 -107q0 -64 -44 -106t-108 -42q-62 0 -104.5 42t-42.5 106z" horiz-adv-x="532" unicode=";"/><glyph d="M66 676v37l897 448v-211l-517 -254l517 -256v-211z" horiz-adv-x="1081" unicode="&lt;"/><glyph d="M82 436v176h838v-176h-838zM82 786v179h838v-179h-838z" horiz-adv-x="1001" unicode="="/><glyph d="M119 229v211l516 256l-516 254v211l897 -448v-37z" horiz-adv-x="1081" unicode="&gt;"/><glyph d="M66 1161q17 28 44.5 58.5t71 64t106.5 55t134 21.5q155 0 265 -93.5t110 -240.5q0 -66 -17.5 -120t-45.5 -91.5t-61.5 -71t-67 -65.5t-61.5 -67t-45.5 -83.5t-17.5 -107.5h-164q-20 67 -8.5 127.5t40 105.5t67 91t73.5 82.5t59.5 81t24.5 85.5q0 78 -48 125t-119 47 q-115 0 -195 -123zM256 127q0 63 43 107.5t104 44.5q63 0 107.5 -44.5t44.5 -107.5q0 -64 -44 -105.5t-108 -41.5q-62 0 -104.5 41.5t-42.5 105.5z" horiz-adv-x="851" unicode="?"/><glyph d="M61 633q0 167 61 318.5t167 263.5t259 178.5t329 66.5q168 0 321 -61.5t261.5 -163.5t172.5 -239t64 -283q0 -218 -104.5 -339.5t-260.5 -121.5q-83 0 -158.5 40t-87.5 97q-38 -61 -106 -98.5t-156 -38.5q-148 -3 -244.5 104t-84.5 273q6 98 50 179.5t125 133.5t183 55 q83 1 149 -36.5t99 -100.5l67 94h99l-70 -391q-14 -73 29.5 -121.5t124.5 -48.5q92 0 154.5 81t62.5 239q0 117 -52 230.5t-141.5 202t-220 143t-276.5 54.5q-197 0 -353 -96.5t-240.5 -258t-84.5 -355.5q0 -195 84 -353.5t243 -253t365 -94.5q255 0 473 123l45 -102 q-226 -137 -518 -137q-183 0 -340 64.5t-263.5 175.5t-166.5 260.5t-60 316.5zM672 627q-8 -96 40.5 -158t129.5 -61q78 1 131 66t61 161q5 92 -42 152t-124 57q-83 -1 -135.5 -60t-60.5 -157z" horiz-adv-x="1757" unicode="@"/><glyph d="M4 0l670 1454h28l662 -1454h-238l-129 293h-624l-129 -293h-240zM449 471h471l-234 547z" horiz-adv-x="1368" unicode="A"/><glyph d="M164 2v1428q160 26 282 26q83 0 155 -10.5t140.5 -37t116.5 -68t77.5 -107.5t29.5 -152q0 -92 -44.5 -167.5t-97.5 -108.5q55 -12 104 -39.5t90.5 -71t66 -108.5t24.5 -144q0 -226 -166.5 -343t-460.5 -117q-166 0 -317 20zM381 184q60 -8 135 -8q76 0 140.5 15 t117.5 45.5t83 83t30 122.5q0 63 -20.5 110t-51.5 73.5t-74 42.5t-80 21t-79 5h-201v-510zM381 860h201q71 9 120.5 67.5t49.5 135.5q0 59 -23 101t-63 64t-83.5 32t-93.5 10q-67 0 -108 -8v-402z" horiz-adv-x="1175" unicode="B"/><glyph d="M66 721q0 165 62 306t166 236.5t241.5 149t287.5 53.5q311 0 547 -211l-129 -153q-77 71 -182.5 122.5t-231.5 51.5q-146 0 -267.5 -73.5t-191 -201t-69.5 -280.5q0 -150 67.5 -277t191 -203.5t276.5 -76.5q119 0 230 47t189 117l127 -144q-46 -45 -91.5 -77.5 t-113.5 -66t-160 -51.5t-202 -18q-157 0 -296 58t-238 157.5t-156 238.5t-57 296z" horiz-adv-x="1445" unicode="C"/><glyph d="M164 0v1432q154 23 289 24h14q127 0 226 -18q105 -18 194 -53t154 -81.5t116 -103.5t83.5 -116.5t54 -124.5t30 -124t8.5 -118q0 -57 -9.5 -114.5t-30.5 -121.5t-55.5 -122.5t-85 -116.5t-117.5 -103t-153.5 -82.5t-194 -55.5t-237.5 -21h-31q-118 0 -255 20zM381 186 q52 -6 102 -5q57 1 112 7q104 14 196 54.5t161.5 104.5t109.5 160t40 212q0 126 -47.5 231.5t-136.5 179.5q-90 76 -228 108q-84 20 -180 19q-62 0 -129 -8v-1063z" horiz-adv-x="1409" unicode="D"/><glyph d="M164 0v1438h794v-183h-579v-354h467v-182h-467v-539h606v-180h-821z" horiz-adv-x="1097" unicode="E"/><glyph d="M164 0v1438h784v-183h-569v-354h457v-182h-457v-719h-215z" horiz-adv-x="1044" unicode="F"/><glyph d="M66 721q0 128 39.5 244.5t110 206.5t164 157t206.5 102t233 35q100 0 187.5 -18.5t155.5 -52t115 -66t93 -74.5q-21 -26 -66.5 -76t-66.5 -75q-38 35 -74 61t-87.5 53.5t-115 42.5t-133.5 15q-144 0 -265 -72.5t-191 -199.5t-70 -279q0 -247 153.5 -405t395.5 -158 q97 0 196.5 34.5t157.5 82.5v215h-231v178h442v-475q-130 -126 -270.5 -176t-302.5 -50q-172 0 -318.5 59t-246 160.5t-155.5 239t-56 291.5z" horiz-adv-x="1517" unicode="G"/><glyph d="M164 0v1438h215v-537h584v537h215v-1438h-215v719h-584v-719h-215z" horiz-adv-x="1341" unicode="H"/><glyph d="M164 0v1438h215v-1438h-215z" horiz-adv-x="542" unicode="I"/><glyph d="M113 -10v182q14 -1 28 -1q137 0 219 73q91 79 91 229v965h215v-971q0 -237 -145 -369q-123 -111 -332 -111q-37 0 -76 3z" horiz-adv-x="854" unicode="J"/><glyph d="M164 0v1438h217v-619l541 619h252l-580 -678l635 -760h-279l-569 688v-688h-217z" horiz-adv-x="1263" unicode="K"/><glyph d="M164 0v1438h215v-1258h561v-180h-776z" horiz-adv-x="1005" unicode="L"/><glyph d="M164 0v1444l35 10l575 -567l574 567l34 -10v-1444h-213v995l-385 -387h-22l-385 387v-995h-213z" horiz-adv-x="1546" unicode="M"/><glyph d="M164 0v1442l29 12l804 -580v564h209v-1438h-209v618l-624 445v-1063h-209z" horiz-adv-x="1370" unicode="N"/><glyph d="M66 717q0 155 56.5 293t155 238.5t239.5 159t302 58.5t302.5 -58.5t240.5 -159t156 -238.5t57 -293q0 -154 -57 -291.5t-156 -237.5t-240.5 -158.5t-302.5 -58.5q-215 0 -388 99.5t-269 270t-96 376.5zM297 717q0 -122 42 -226t113 -175.5t166 -111.5t201 -40 q105 0 200.5 40t167 111t114 176t42.5 226t-42.5 226.5t-114 178t-167 113.5t-200.5 41t-200.5 -41t-166.5 -113.5t-113 -177.5t-42 -227z" unicode="O"/><glyph d="M164 0v1427q146 29 271 29q105 0 195 -20q198 -44 309.5 -173.5t111.5 -312.5q0 -128 -53 -232.5t-144 -171.5q-92 -68 -214 -102q-101 -28 -213 -27q-24 0 -48 1v-418h-215zM379 610q33 -3 64 -3q167 1 267 83q118 98 119 260q0 150 -122 242q-91 69 -228 69 q-47 0 -100 -8v-643z" horiz-adv-x="1112" unicode="P"/><glyph d="M66 717q0 155 56.5 293t155 238.5t239.5 159t302 58.5t302.5 -58.5t240.5 -159t156 -238.5t57 -293q0 -176 -73.5 -324.5t-203.5 -245.5l144 -170q-22 -23 -72.5 -64t-73.5 -63l-157 187q-151 -66 -320 -66q-215 0 -388 99.5t-269 270t-96 376.5zM297 717q0 -122 42 -226 t113 -175.5t166 -111.5t201 -40q92 0 174 31l-147 176l145 127l160 -191q89 66 140.5 173t51.5 237q0 121 -42.5 226.5t-114 178t-167 113.5t-200.5 41t-200.5 -41t-166.5 -113.5t-113 -177.5t-42 -227z" unicode="Q"/><glyph d="M164 0v1427q156 30 285 30q105 1 191 -19q194 -44 297 -165.5t103 -301.5q0 -123 -59.5 -234t-175.5 -182l399 -555h-272l-326 479q-70 -14 -146 -14q-40 0 -81 4v-469h-215zM379 662q42 -5 80 -5q147 -1 241 69q120 88 119 243q0 70 -28 128.5t-83 99.5q-56 41 -138 56 q-39 7 -83 7q-50 0 -108 -9v-589z" horiz-adv-x="1214" unicode="R"/><glyph d="M76 109l96 165q152 -112 326 -112q119 0 188.5 56t69.5 130q0 29 -8.5 56t-19.5 47t-36.5 45t-42.5 39.5t-57 40.5t-60.5 38t-70.5 41q-87 52 -145.5 95.5t-107 97.5t-71 116t-22.5 136q0 65 27.5 128.5t79 117.5t137 87t190.5 33q107 0 210 -26.5t163 -63.5l-74 -180 q-145 76 -289 76q-104 0 -165.5 -52t-61.5 -128q0 -35 14.5 -66.5t35.5 -55.5t59.5 -51t69 -45t81.5 -45q210 -111 296 -225q83 -111 83 -245v-9q-3 -123 -64 -210q-61 -86 -162 -128q-99 -41 -225 -41h-6q-144 1 -257.5 42t-180.5 96z" horiz-adv-x="1058" unicode="S"/><glyph d="M51 1255v183h953v-183h-371v-1255h-215v1255h-367z" horiz-adv-x="1054" unicode="T"/><glyph d="M147 502v936h218v-928q0 -149 87 -249.5t224 -100.5q138 0 226.5 101t88.5 249v928h215v-936q0 -104 -33.5 -198t-97 -169t-167.5 -119.5t-234 -44.5t-233 44.5t-165.5 119.5t-95.5 169t-33 198z" horiz-adv-x="1355" unicode="U"/><glyph d="M16 1438h244l406 -983l417 983h228l-635 -1454h-29z" horiz-adv-x="1327" unicode="V"/><glyph d="M16 1438h236l338 -940l373 956h30l375 -969l354 953h220l-558 -1454h-30l-381 999l-381 -999h-31z" horiz-adv-x="1957" unicode="W"/><glyph d="M41 0l446 719l-446 719h252l319 -518l322 518h237l-440 -711l457 -727h-250l-330 530l-327 -530h-240z" horiz-adv-x="1228" unicode="X"/><glyph d="M20 1438h254l344 -531l347 531h243l-487 -754v-684h-217v684z" horiz-adv-x="1228" unicode="Y"/><glyph d="M55 31l703 1226h-631v181h942l16 -31l-696 -1227h664v-180h-977z" horiz-adv-x="1142" unicode="Z"/><glyph d="M174 -268v1706h508v-174l-291 -2v-1358h291v-172h-508z" horiz-adv-x="774" unicode="["/><glyph d="M20 1438l164 71l711 -1775l-162 -72z" horiz-adv-x="872" unicode="\"/><glyph d="M92 -96h291v1358l-291 2v174h508v-1706h-508v172z" horiz-adv-x="774" unicode="]"/><glyph d="M55 1001l359 437h26l359 -437l-129 -110l-244 307l-246 -307z" horiz-adv-x="856" unicode="^"/><glyph d="M0 -188h1346v-156h-1346v156z" horiz-adv-x="1345" unicode="_"/><glyph d="M61 1204v31h258l123 -272h-151z" horiz-adv-x="503" unicode="`"/><glyph d="M51 250q0 125 92.5 207t237.5 82q87 0 168.5 -36t116.5 -75v47q-2 91 -62 155t-164 64q-51 0 -95.5 -10t-67 -19.5t-58.5 -27.5l-65 141q47 31 136 58q86 26 163 26h6q180 -3 287.5 -106t113.5 -295l-2 -461h-115l-69 106q-88 -133 -291 -133q-143 0 -237.5 80t-94.5 197 zM252 258q0 -58 51.5 -98.5t122.5 -40.5q91 0 160 50.5t80 121.5v12q-37 41 -102 69q-63 27 -133 27h-5q-80 0 -127 -40.5t-47 -100.5z" horiz-adv-x="952" unicode="a"/><glyph d="M113 0v1438l182 24h18v-741q38 64 120.5 103.5t172.5 39.5q179 0 300.5 -125t121.5 -319q0 -196 -120 -321.5t-300 -125.5q-92 0 -178 43t-127 109l-80 -125h-110zM315 416q0 -124 75.5 -202.5t180.5 -78.5q107 0 179.5 79.5t72.5 205.5q0 125 -74.5 203.5t-179.5 78.5 q-108 0 -179.5 -73t-74.5 -197v-16z" horiz-adv-x="1083" unicode="b"/><glyph d="M55 418q0 195 127.5 320.5t325.5 125.5q100 0 190.5 -38.5t153.5 -108.5l-107 -129q-94 112 -219 112q-115 0 -191.5 -77.5t-76.5 -204.5q0 -123 79.5 -201t194.5 -78q62 0 123 27t99 65l98 -118q-140 -140 -340 -140q-203 0 -330 127.5t-127 317.5z" horiz-adv-x="894" unicode="c"/><glyph d="M55 420q0 128 57 230.5t153 158t212 55.5q91 0 173 -39.5t118 -103.5v717l184 24h19v-1462h-113l-80 125q-41 -66 -126 -109t-177 -43q-180 0 -300 125.5t-120 321.5zM260 420q0 -126 72.5 -205.5t179.5 -79.5q106 0 180 78.5t74 202.5v16q-1 123 -72 196.5t-178 73.5 q-106 0 -181 -78.5t-75 -203.5z" horiz-adv-x="1083" unicode="d"/><glyph d="M55 420q0 195 125.5 319.5t306.5 124.5q79 0 152 -29.5t131.5 -83.5t93.5 -140t35 -191v-21h-643q1 -117 91.5 -190.5t213.5 -73.5q135 0 258 74l80 -131q-63 -52 -165.5 -78.5t-201.5 -26.5q-205 0 -341 128t-136 319zM270 528h420q-8 77 -66 128t-137 51 q-88 0 -148 -57.5t-69 -121.5z" horiz-adv-x="960" unicode="e"/><glyph d="M55 676v20l21 142h108v295q0 76 20 137t54 98.5t77.5 62.5t92.5 33q38 6 76 6h18q47 -2 90 -14l-24 -166q-25 7 -48 7q-49 0 -92 -31q-64 -45 -63 -150v-278h211v-162h-211v-676h-201v676h-129z" horiz-adv-x="647" unicode="f"/><glyph d="M10 -238q0 102 64.5 168t154.5 82q-40 6 -72 45.5t-32 92.5q2 56 43 96q38 37 94 37h8q-80 45 -119.5 117t-39.5 149q0 55 21 109t62 101t112 76t161 29q75 0 149.5 -26.5t114.5 -63.5l182 64h35v-183h-149q24 -37 24 -94q0 -134 -94.5 -226t-267.5 -95 q-64 0 -97.5 -20.5t-33.5 -57.5q0 -79 151 -82q243 -12 363.5 -90.5t120.5 -231.5q0 -95 -67 -164t-175 -102t-244 -33q-132 0 -237 33.5t-168.5 103.5t-63.5 166zM209 -233q0 -74 80.5 -112t195.5 -38q75 0 135.5 15t101 49.5t40.5 85.5q0 72 -95 113.5t-210 41.5 q-108 0 -178 -40.5t-70 -114.5zM299 547q0 -63 46.5 -111.5t121.5 -48.5q78 0 123 48t45 112q0 66 -45 115t-123 49t-123 -49t-45 -115z" horiz-adv-x="999" unicode="g"/><glyph d="M113 0v1438l182 24h18v-723q45 57 114 91t153 34q153 0 252.5 -98.5t99.5 -257.5v-508h-205v483q0 83 -58 149t-145 66q-94 0 -150 -72.5t-61 -191.5v-434h-200z" horiz-adv-x="1024" unicode="h"/><glyph d="M86 1182q0 60 43 102.5t100 42.5q60 0 103 -42.5t43 -102.5q0 -61 -42.5 -102.5t-103.5 -41.5q-58 0 -100.5 41.5t-42.5 102.5zM131 0v838h201v-838h-201z" horiz-adv-x="462" unicode="i"/><glyph d="M-92 -510l24 164q22 -5 43 -5q54 0 98 35q61 47 60 140v1014h203v-1031q0 -74 -20 -133t-54 -96t-77.5 -61.5t-92.5 -32.5q-41 -8 -81 -8h-13q-47 2 -90 14zM88 1182q0 60 43 102.5t102 42.5q60 0 103 -42.5t43 -102.5q0 -61 -42.5 -102.5t-103.5 -41.5q-59 0 -102 41.5 t-43 102.5z" horiz-adv-x="466" unicode="j"/><glyph d="M113 0v1438l182 24h18v-948l336 324h244l-391 -387l428 -451h-258l-359 371v-371h-200z" horiz-adv-x="956" unicode="k"/><glyph d="M113 0v1438l182 24h18v-1462h-200z" horiz-adv-x="425" unicode="l"/><glyph d="M113 0v838h110l80 -95q29 50 86.5 85.5t130.5 35.5q193 0 273 -159q37 75 110 117t154 42q147 0 227 -91t80 -241v-532h-203v508q0 93 -45 138.5t-115 45.5q-62 0 -109.5 -46t-51.5 -134v-512h-203v504q0 92 -45 140t-115 48q-66 0 -115 -50.5t-49 -141.5v-500h-200z" horiz-adv-x="1456" unicode="m"/><glyph d="M113 0v838h110l80 -105q45 59 118 95t163 36q152 0 250 -98t98 -258v-508h-205v483q0 98 -58.5 156.5t-146.5 58.5q-78 0 -143.5 -58.5t-65.5 -154.5v-485h-200z" horiz-adv-x="1024" unicode="n"/><glyph d="M55 420q0 131 66.5 234.5t171 156.5t223.5 53q87 0 169 -31.5t146 -88t103 -141t39 -183.5q0 -131 -66.5 -235t-171 -158t-223.5 -54q-117 0 -220.5 54t-170 158t-66.5 235zM260 420q0 -127 74.5 -206t179.5 -79q106 0 180 79t74 206t-75 204.5t-181 77.5t-179 -77 t-73 -205z" horiz-adv-x="1030" unicode="o"/><glyph d="M113 -512v1350h110l80 -131q41 70 125.5 113.5t177.5 43.5q180 0 300 -125.5t120 -320.5t-121 -320t-301 -125q-91 0 -173 39.5t-118 104.5v-602l-182 -27h-18zM315 406q3 -120 74 -195.5t178 -75.5q105 0 179.5 78.5t74.5 204.5t-72 205t-180 79q-105 0 -179.5 -77 t-74.5 -203v-16z" horiz-adv-x="1083" unicode="p"/><glyph d="M55 418q0 195 120 320.5t300 125.5q93 0 178.5 -43.5t124.5 -113.5l80 131h113v-1323l-183 -27h-20v629q-35 -65 -117.5 -104.5t-173.5 -39.5q-178 0 -300 125t-122 320zM260 418q0 -127 75 -205t181 -78q107 0 178 74t72 197v16q0 124 -74 202t-180 78q-108 0 -180 -79 t-72 -205z" horiz-adv-x="1083" unicode="q"/><glyph d="M113 0v838h110l80 -90q23 48 76 81t115 33q56 0 116 -31q-8 -47 -35 -180l-12 -4q-45 25 -96 25q-100 0 -154 -94v-578h-200z" horiz-adv-x="647" unicode="r"/><glyph d="M72 49l53 164q168 -76 266 -76q41 0 78 8t65.5 29.5t28.5 54.5q0 40 -43 63t-135 44q-301 57 -301 266q0 122 97 192t235 70q140 0 289 -57l-52 -160q-117 51 -239 51q-61 0 -102.5 -22.5t-41.5 -71.5q0 -39 40 -59.5t118 -36.5q161 -26 239 -96.5t78 -178.5 q0 -86 -49.5 -146.5t-127 -87t-175.5 -26.5q-183 0 -321 76z" horiz-adv-x="817" unicode="s"/><glyph d="M41 676v2v18l20 142h117v284l184 29h19v-313h205v-162h-205v-402q0 -61 37 -91.5t94 -30.5q28 0 66 10q21 -115 28 -162q-70 -18 -125 -18q-303 0 -303 331v363h-137z" horiz-adv-x="673" unicode="t"/><glyph d="M102 330v508h203v-484q0 -98 59.5 -156.5t145.5 -58.5q78 0 143.5 58t65.5 155v486h203v-838h-123l-70 102q-44 -60 -116.5 -94.5t-163.5 -34.5q-152 0 -249.5 98.5t-97.5 258.5z" horiz-adv-x="1034" unicode="u"/><glyph d="M14 838h222l247 -494l256 494h207l-452 -854h-27z" horiz-adv-x="962" unicode="v"/><glyph d="M14 838h209l209 -463l244 483h29l241 -483l213 463h195l-389 -854h-27l-254 532l-258 -532h-29z" horiz-adv-x="1370" unicode="w"/><glyph d="M31 838h239l215 -273l226 273h231l-340 -422q65 -77 181 -220.5t159 -195.5h-237q-63 71 -222 266l-213 -266h-237l332 416z" horiz-adv-x="972" unicode="x"/><glyph d="M20 838h224l245 -525l250 525h209l-637 -1354h-196l-19 20l285 582z" horiz-adv-x="974" unicode="y"/><glyph d="M61 37l476 639h-441l-2 162h733l15 -41l-451 -635h432v-162h-745z" horiz-adv-x="903" unicode="z"/><glyph d="M82 502v164h49q51 0 87.5 15t55.5 36t29.5 56t13 62.5t2.5 67.5v150q0 83 18 151t57 125t109.5 89t166.5 32q66 0 135 -14l-31 -176q-40 4 -55 4q-48 0 -82.5 -14.5t-53.5 -35.5t-29.5 -52.5t-13.5 -58t-3 -59.5v-174q0 -110 -46 -184t-118 -102q53 -22 85.5 -50.5 t55.5 -91t23 -157.5v-193q0 -28 3 -50.5t13.5 -49t29 -44.5t53 -30t81.5 -12q36 0 59 4l31 -178q-73 -15 -133 -15q-98 0 -168.5 32t-109.5 89.5t-56.5 125.5t-17.5 151v149q0 39 -2.5 67t-13.5 63t-30.5 56.5t-55.5 36.5t-87 15h-51z" horiz-adv-x="909" unicode="{"/><glyph d="M184 -268v1732h195v-1732h-195z" horiz-adv-x="563" unicode="|"/><glyph d="M102 -268l31 178q23 -4 60 -4q47 0 81.5 12t53 30t29 44.5t13.5 49t3 50.5v193q0 95 23 157.5t55.5 91t85.5 50.5q-72 28 -118 102t-46 184v174q0 43 -6 75.5t-23 68.5t-56 56t-98 20q-15 0 -55 -4l-31 176q69 14 136 14q96 0 166 -32t109 -89t57 -125t18 -151v-150 q0 -40 2.5 -67.5t13 -62.5t29.5 -56t55.5 -36t87.5 -15h49v-164h-51q-51 0 -87 -15t-55.5 -36.5t-30 -56.5t-13 -62.5t-2.5 -67.5v-149q0 -83 -17.5 -151t-56.5 -125.5t-109.5 -89.5t-168.5 -32q-60 0 -134 15z" horiz-adv-x="909" unicode="}"/><glyph d="M88 393q-4 58 8 102.5t33 71t51.5 43.5t59.5 23t61 6q53 0 153 -34t140 -34q86 0 127 58l86 -11q6 -66 -11.5 -116t-51.5 -77t-71.5 -39.5t-76.5 -12.5q-53 0 -153 33.5t-140 33.5q-94 0 -129 -57z" horiz-adv-x="897" unicode="~"/><glyph d="M158 750q0 64 43.5 105.5t107.5 41.5q63 0 106.5 -41.5t43.5 -105.5q0 -63 -44 -107.5t-106 -44.5q-63 0 -107 44.5t-44 107.5zM160 -457l96 914h106l99 -914h-301z" horiz-adv-x="618" unicode="¡"/><glyph d="M55 694q0 166 94 284t250 150v267h172v-258q168 -22 281 -144l-107 -129q-95 113 -219 113q-115 0 -191.5 -78t-76.5 -205q0 -123 79.5 -200.5t194.5 -77.5q62 0 123 27t99 65l98 -119q-118 -118 -281 -137v-252h-172v260q-158 35 -251 154t-93 280z" horiz-adv-x="894" unicode="¢"/><glyph d="M76 168q70 -3 125.5 12t89 42t53.5 64t18 78.5t-16 84.5h-199v178h160q-10 19 -56 91.5t-68.5 130t-22.5 122.5q0 175 116.5 282t301.5 107q129 0 236.5 -54.5t160.5 -160.5l-158 -94q-32 61 -93 96t-132 35q-92 0 -156.5 -60t-64.5 -157q0 -62 27 -118.5t68 -117 t58 -102.5h240v-178h-205q30 -128 -35 -222q85 -73 215 -73q79 0 148 36t102 86l117 -133q-109 -172 -371 -172q-120 0 -190 26.5t-123 72.5q-32 -27 -72 -43.5t-83.5 -22t-72.5 -7t-68 0.5t-42 2z" horiz-adv-x="1136" unicode="£"/><glyph d="M106 313l130 123q-89 121 -89 283t89 282l-130 123l130 142l131 -131q130 84 278 84q156 0 281 -84l129 131l129 -142l-127 -123q88 -116 88 -282q0 -165 -88 -283l127 -123l-129 -139l-129 131q-124 -82 -281 -82q-151 0 -278 82q-32 -34 -134 -131q-119 131 -127 139z M336 719q0 -129 89 -226.5t220 -97.5q133 0 222 97.5t89 226.5t-89 227t-222 98q-131 0 -220 -98t-89 -227z" horiz-adv-x="1290" unicode="¤"/><glyph d="M31 1333h250l348 -483l354 483h234l-379 -528h241v-168h-350v-137h350v-166h-350v-334h-217v334h-352v166h352v137h-352v168h246z" horiz-adv-x="1247" unicode="¥"/><glyph d="M184 -268v704h195v-704h-195zM184 760v704h195v-704h-195z" horiz-adv-x="563" unicode="¦"/><glyph d="M76 -201l61 170q59 -34 145.5 -60t168.5 -26q75 0 130.5 37t55.5 100q0 56 -46 95.5t-145 72.5q-66 20 -117 40.5t-100 50t-80.5 64.5t-51 82.5t-19.5 104.5q0 79 42 149.5t118 104.5q-62 42 -99 107.5t-37 138.5q0 79 30.5 143t82.5 104t118.5 61.5t139.5 21.5 q91 0 181.5 -23t158.5 -61l-55 -172q-149 78 -283 78q-72 0 -120 -41t-48 -101q0 -56 46.5 -100t123.5 -70q204 -59 299.5 -145.5t95.5 -214.5q0 -75 -42 -139.5t-111 -104.5q63 -37 100 -101.5t37 -141.5q0 -155 -115.5 -238.5t-289.5 -83.5q-118 0 -221.5 31t-153.5 67z M293 537q0 -58 59 -101.5t142 -64.5q65 -2 113 40.5t48 106.5q0 48 -54 95.5t-161 76.5q-55 0 -101 -40t-46 -113z" horiz-adv-x="944" unicode="§"/><glyph d="M61 1100q0 51 32.5 85t78.5 34q51 0 85 -34t34 -85q0 -47 -34 -79t-85 -32q-46 0 -78.5 32t-32.5 79zM379 1100q0 51 33 85t82 34q48 0 82 -34.5t34 -84.5q0 -47 -34 -79t-82 -32q-49 0 -82 32t-33 79z" horiz-adv-x="671" unicode="¨"/><glyph d="M61 717q0 152 56 289t153 237t234.5 158.5t294.5 58.5q207 0 376.5 -100t265 -270t95.5 -373q0 -202 -95.5 -371.5t-265 -269t-376.5 -99.5q-157 0 -294.5 58.5t-234.5 158t-153 236t-56 287.5zM190 717q0 -172 79 -316.5t219.5 -229.5t312.5 -85q171 0 312 85 t220.5 229.5t79.5 316.5q0 173 -79.5 317.5t-220.5 229t-312 84.5q-172 0 -312.5 -84.5t-219.5 -229t-79 -317.5zM440 719q0 155 106.5 266t272.5 111q86 0 165.5 -37.5t123.5 -91.5l-88 -99q-86 90 -189 90q-100 0 -162.5 -69t-62.5 -172q0 -104 67 -172t163 -68 q114 0 194 84l88 -86q-54 -70 -136.5 -101.5t-158.5 -31.5q-169 0 -276 112.5t-107 264.5z" horiz-adv-x="1597" unicode="©"/><glyph d="M76 1124q0 97 70 160.5t182 63.5q116 0 213 -70v51q-2 62 -46 111t-122 49q-70 0 -150 -39l-57 106q36 23 99 42t124 18q131 -3 214.5 -79t86.5 -220l-2 -399h-78l-63 79q-15 -32 -74.5 -65t-136.5 -33q-112 0 -186 64t-74 161zM225 1128q0 -50 43.5 -79t96.5 -29 q60 0 107 30.5t69 69.5v58q-7 3 -26.5 14t-31 16.5t-31.5 12.5t-43.5 10.5t-50.5 3.5q-54 0 -93.5 -29t-39.5 -78z" horiz-adv-x="784" unicode="ª"/><glyph d="M61 406v32l416 453l135 -105l-323 -360l323 -350l-139 -109zM502 406v32l416 453l135 -105l-324 -360l324 -350l-140 -109z" horiz-adv-x="1144" unicode="«"/><glyph d="M82 418v178h809h2q0 -56 -1 -167t-1 -167h-182v156h-627z" horiz-adv-x="974" unicode="¬"/><glyph d="M82 346v189l543 79v-188z" horiz-adv-x="706" unicode="­"/><glyph d="M61 717q0 152 56 289t153 237t234.5 158.5t294.5 58.5q207 0 376.5 -100t265 -270t95.5 -373q0 -202 -95.5 -371.5t-265 -269t-376.5 -99.5q-157 0 -294.5 58.5t-234.5 158t-153 236t-56 287.5zM190 717q0 -172 79 -316.5t219.5 -229.5t312.5 -85q171 0 312 85 t220.5 229.5t79.5 316.5q0 173 -79.5 317.5t-220.5 229t-312 84.5q-172 0 -312.5 -84.5t-219.5 -229t-79 -317.5zM563 362v713q95 23 180 23q159 0 251.5 -74t92.5 -184q0 -62 -32.5 -114t-79.5 -83l162 -281h-170l-125 232q-30 -6 -66 -6q-27 0 -63 4v-230h-150zM713 717 q36 -4 51 -4q80 0 124 36t44 91q0 56 -45 87t-117 31q-17 0 -57 -4v-237z" horiz-adv-x="1597" unicode="®"/><glyph d="M61 1028v148h535v-148h-535z" horiz-adv-x="657" unicode="¯"/><glyph d="M61 1135q0 142 98.5 236.5t231.5 94.5q134 0 233 -94t99 -237q0 -145 -93.5 -237.5t-238.5 -92.5q-143 0 -236.5 93t-93.5 237zM219 1135q0 -77 49 -131t123 -54q77 0 125.5 53.5t48.5 131.5t-48.5 130t-125.5 52q-74 0 -123 -52.5t-49 -129.5z" horiz-adv-x="784" unicode="°"/><glyph d="M82 258v166h807v-166h-807zM82 743v168h313v211h180v-211h316v-168h-316v-202h-180v202h-313z" horiz-adv-x="972" unicode="±"/><glyph d="M35 918q201 165 265 227q133 132 134 215q0 62 -37.5 93.5t-93.5 31.5q-43 0 -84.5 -23.5t-64.5 -56.5h-19l-72 84q37 57 110 92.5t151 34.5q108 -2 183 -67t75 -191q0 -38 -17 -81t-37 -74.5t-57.5 -72.5t-55.5 -58.5t-54 -49.5q-9 -8 -13 -12h262v-121h-561z" horiz-adv-x="686" unicode="²"/><glyph d="M51 950l49 101h23q24 -22 77.5 -41t104.5 -19q61 0 111.5 34.5t50.5 92.5q0 67 -64.5 105.5t-171.5 11.5l-22 25l172 223h-291v116h498l12 -28l-178 -244q63 -2 127.5 -62.5t64.5 -150.5q0 -101 -83.5 -173.5t-217.5 -72.5q-147 0 -262 82z" horiz-adv-x="690" unicode="³"/><glyph d="M61 963l123 272h258v-31l-229 -241h-152z" horiz-adv-x="503" unicode="´"/><glyph d="M113 838h202v-484q0 -98 58.5 -156.5t144.5 -58.5q78 0 143.5 58t65.5 155v486h203v-838h-121l-72 104q-27 -52 -103.5 -92.5t-150.5 -40.5q-54 0 -101.5 17.5t-66.5 54.5v-530l-182 -41h-18z" horiz-adv-x="1042" unicode="µ"/><glyph d="M61 1016q0 187 132.5 303.5t332.5 116.5h521v-181h-127v-1523h-177v1523h-84l-2 -1523h-174v858q-181 28 -301.5 140t-120.5 286z" horiz-adv-x="1118" unicode="¶"/><glyph d="M113 541q0 63 43 107t104 44q63 0 107.5 -44t44.5 -107q0 -64 -44 -106t-108 -42q-62 0 -104.5 42t-42.5 106z" horiz-adv-x="524" unicode="·"/><glyph d="M61 -377q0 27 5 160q33 -10 61 -10q56 0 95.5 29.5t39.5 82.5q0 42 -18.5 67.5t-53.5 47.5v20l58 23q73 -13 128.5 -70t55.5 -133q0 -109 -81.5 -169t-194.5 -60q-48 0 -95 12z" horiz-adv-x="493" unicode="¸"/><glyph d="M72 1487l262 131h28v-729h-139v541l-106 -48z" horiz-adv-x="522" unicode="¹"/><glyph d="M61 1257q0 153 91 257t235 104t235 -104t91 -257q0 -152 -92.5 -255t-233.5 -103q-145 0 -235.5 102.5t-90.5 255.5zM209 1257q0 -55 19 -107t61 -90t98 -38q58 0 99.5 38t59 89.5t17.5 107.5q0 93 -45.5 165.5t-130.5 72.5q-58 0 -100 -37.5t-60 -90t-18 -110.5z" horiz-adv-x="774" unicode="º"/><glyph d="M92 72l324 360l-324 350l139 109l412 -438v-33l-416 -453zM532 72l324 360l-324 350l140 109l411 -438v-33l-415 -453z" horiz-adv-x="1144" unicode="»"/><glyph d="M102 1282l263 131h28v-729h-139v541l-107 -47zM193 37l1073 1390l94 -73l-1071 -1385zM768 156l498 577l53 -20l2 -492h92v-112h-92v-109h-139v109h-379zM987 221h195v236z" horiz-adv-x="1517" unicode="¼"/><glyph d="M102 1282l263 131h28v-729h-139v541l-107 -47zM184 37l1073 1390l95 -73l-1071 -1385zM942 29q201 165 265 227q133 132 134 215q0 62 -37.5 93.5t-93.5 31.5q-43 0 -84.5 -23.5t-64.5 -56.5h-19l-71 84q37 57 109.5 92.5t150.5 34.5q108 -2 183 -67t75 -191 q0 -38 -17 -81t-37 -74.5t-57.5 -72.5t-55.5 -58.5t-54 -49.5q-9 -8 -13 -12h263v-121h-562z" horiz-adv-x="1619" unicode="½"/><glyph d="M76 745l49 101h22q24 -22 78 -41t105 -19q61 0 111.5 34.5t50.5 92.5q0 67 -64.5 105.5t-171.5 11.5l-23 25l173 223h-291v117h497l13 -29l-179 -244q63 -2 128 -62.5t65 -150.5q0 -100 -83.5 -172.5t-217.5 -72.5q-86 0 -153.5 26t-108.5 55zM305 37l1073 1390l95 -73 l-1072 -1385zM870 156l498 577l53 -20l2 -492h93v-112h-93v-109h-139v109h-379zM1090 221h194v236z" horiz-adv-x="1630" unicode="¾"/><glyph d="M0 -150q0 66 17.5 120t45 91.5t61 71t67.5 66t61.5 67t45 83.5t17.5 108h164q20 -67 8.5 -128t-40 -106t-67 -91t-73.5 -82.5t-59.5 -81t-24.5 -85.5q0 -77 48.5 -124.5t119.5 -47.5q115 0 195 123l145 -119q-13 -22 -32 -45t-51.5 -51.5t-70.5 -50t-91.5 -36.5 t-110.5 -15q-155 0 -265 93t-110 240zM242 750q0 64 43.5 105.5t107.5 41.5q62 0 105 -41.5t43 -105.5q0 -63 -43.5 -107.5t-104.5 -44.5q-63 0 -107 44.5t-44 107.5z" horiz-adv-x="729" unicode="¿"/><glyph d="M4 0l670 1454h28l662 -1454h-238l-129 293h-624l-129 -293h-240zM381 1782v30h258l123 -272h-152zM449 471h471l-234 547z" horiz-adv-x="1368" unicode="À"/><glyph d="M4 0l670 1454h28l662 -1454h-238l-129 293h-624l-129 -293h-240zM449 471h471l-234 547zM606 1540l123 272h258v-30l-229 -242h-152z" horiz-adv-x="1368" unicode="Á"/><glyph d="M4 0l670 1454h28l662 -1454h-238l-129 293h-624l-129 -293h-240zM416 1540q117 192 168 272h202q51 -80 168 -272h-145q-121 115 -125 119l-123 -119h-145zM449 471h471l-234 547z" horiz-adv-x="1368" unicode="Â"/><glyph d="M4 0l670 1454h28l662 -1454h-238l-129 293h-624l-129 -293h-240zM412 1597q-4 97 41.5 143t117.5 46q48 0 120 -26.5t100 -26.5q36 0 54.5 11.5t31.5 35.5l86 -25q3 -92 -46 -140t-120 -48q-43 0 -117.5 27.5t-97.5 27.5q-37 0 -54 -11t-30 -38zM449 471h471l-234 547z" horiz-adv-x="1368" unicode="Ã"/><glyph d="M4 0l670 1454h28l662 -1454h-238l-129 293h-624l-129 -293h-240zM401 1677q0 51 32.5 85t78.5 34q51 0 85 -34t34 -85q0 -47 -34 -78.5t-85 -31.5q-46 0 -78.5 31.5t-32.5 78.5zM449 471h471l-234 547zM719 1677q0 51 33 85t82 34q48 0 82 -34.5t34 -84.5 q0 -47 -34 -78.5t-82 -31.5q-49 0 -82 31.5t-33 78.5z" horiz-adv-x="1368" unicode="Ä"/><glyph d="M4 0l602 1343q-76 25 -123 89t-47 145q0 102 72 174t176 72q105 0 177.5 -72t72.5 -174q0 -78 -45.5 -141t-118.5 -90l594 -1346h-238l-129 293h-624l-129 -293h-240zM449 471h471l-234 559zM559 1577q0 -53 36 -91t89 -38q55 0 91 38t36 91q0 55 -36 92t-91 37 q-54 0 -89.5 -37.5t-35.5 -91.5z" horiz-adv-x="1368" unicode="Å"/><glyph d="M-41 0l1059 1438h797v-183h-580v-348h467v-182h-467v-545h606v-180h-821v291h-578l-217 -291h-266zM565 475h455v631z" horiz-adv-x="1953" unicode="Æ"/><glyph d="M66 721q0 165 62 306t166 236.5t241.5 149t287.5 53.5q311 0 547 -211l-129 -153q-77 71 -182.5 122.5t-231.5 51.5q-146 0 -267.5 -73.5t-191 -201t-69.5 -280.5q0 -150 67.5 -277t191 -203.5t276.5 -76.5q119 0 230 47t189 117l127 -144q-43 -41 -83.5 -71.5 t-100 -62.5t-137.5 -51.5t-170 -25.5q55 -58 55 -133q0 -109 -81.5 -169t-194.5 -60q-48 0 -95 12q0 27 5 160q33 -10 61 -10q56 0 95.5 29.5t39.5 82.5q0 58 -37 90q-191 17 -344.5 118.5t-240 266t-86.5 361.5z" horiz-adv-x="1445" unicode="Ç"/><glyph d="M164 0v1438h794v-183h-579v-354h467v-182h-467v-539h606v-180h-821zM334 1782v30h258l123 -272h-152z" horiz-adv-x="1097" unicode="È"/><glyph d="M164 0v1438h794v-183h-579v-354h467v-182h-467v-539h606v-180h-821zM414 1540l123 272h258v-30l-230 -242h-151z" horiz-adv-x="1097" unicode="É"/><glyph d="M164 0v1438h794v-183h-579v-354h467v-182h-467v-539h606v-180h-821zM307 1540q117 192 168 272h203q51 -80 168 -272h-146q-121 115 -125 119l-122 -119h-146z" horiz-adv-x="1097" unicode="Ê"/><glyph d="M164 0v1438h794v-183h-579v-354h467v-182h-467v-539h606v-180h-821zM293 1677q0 51 32 85t78 34q51 0 85 -34t34 -85q0 -47 -34 -78.5t-85 -31.5q-46 0 -78 31.5t-32 78.5zM610 1677q0 51 33 85t82 34q48 0 82.5 -34.5t34.5 -84.5q0 -47 -34.5 -78.5t-82.5 -31.5 q-49 0 -82 31.5t-33 78.5z" horiz-adv-x="1097" unicode="Ë"/><glyph d="M-2 1782v30h258l123 -272h-152zM164 0v1438h215v-1438h-215z" horiz-adv-x="542" unicode="Ì"/><glyph d="M164 0v1438h215v-1438h-215zM164 1540l123 272h258v-30l-230 -242h-151z" horiz-adv-x="542" unicode="Í"/><glyph d="M2 1540q117 192 168 272h203q51 -80 168 -272h-146q-121 115 -125 119l-123 -119h-145zM164 0v1438h215v-1438h-215z" horiz-adv-x="542" unicode="Î"/><glyph d="M-4 1677q0 51 32 85t78 34q51 0 85 -34t34 -85q0 -47 -34 -78.5t-85 -31.5q-46 0 -78 31.5t-32 78.5zM164 0v1438h215v-1438h-215zM313 1677q0 51 33 85t82 34q48 0 82.5 -34.5t34.5 -84.5q0 -47 -34.5 -78.5t-82.5 -31.5q-49 0 -82 31.5t-33 78.5z" horiz-adv-x="542" unicode="Ï"/><glyph d="M20 625v178h195v629q153 23 288.5 24t240 -17.5t194 -53.5t154 -81.5t115.5 -103.5t84 -116.5t54 -124.5t30 -124t9 -118q0 -64 -12 -129t-40 -137.5t-73 -136.5t-111 -125.5t-154.5 -104t-203.5 -72.5t-258 -31.5t-317 19.5v625h-195zM432 188q110 -12 214 1t196 54 t161.5 104.5t109.5 159.5t40 212q0 126 -47.5 231.5t-136.5 180t-227.5 107t-309.5 11.5v-446h369v-178h-369v-437z" horiz-adv-x="1460" unicode="Ð"/><glyph d="M164 0v1442l29 12l804 -580v564h209v-1438h-209v618l-624 445v-1063h-209zM406 1597q-4 97 41.5 143t117.5 46q48 0 119.5 -26.5t99.5 -26.5q36 0 54.5 11.5t31.5 35.5l86 -25q3 -92 -45.5 -140t-119.5 -48q-43 0 -118 27.5t-98 27.5q-37 0 -53.5 -10.5t-29.5 -38.5z" horiz-adv-x="1370" unicode="Ñ"/><glyph d="M66 717q0 155 56.5 293t155 238.5t239.5 159t302 58.5t302.5 -58.5t240.5 -159t156 -238.5t57 -293q0 -154 -57 -291.5t-156 -237.5t-240.5 -158.5t-302.5 -58.5q-215 0 -388 99.5t-269 270t-96 376.5zM297 717q0 -122 42 -226t113 -175.5t166 -111.5t201 -40 q105 0 200.5 40t167 111t114 176t42.5 226t-42.5 226.5t-114 178t-167 113.5t-200.5 41t-200.5 -41t-166.5 -113.5t-113 -177.5t-42 -227zM530 1782v30h258l123 -272h-151z" unicode="Ò"/><glyph d="M66 717q0 155 56.5 293t155 238.5t239.5 159t302 58.5t302.5 -58.5t240.5 -159t156 -238.5t57 -293q0 -154 -57 -291.5t-156 -237.5t-240.5 -158.5t-302.5 -58.5q-215 0 -388 99.5t-269 270t-96 376.5zM297 717q0 -122 42 -226t113 -175.5t166 -111.5t201 -40 q105 0 200.5 40t167 111t114 176t42.5 226t-42.5 226.5t-114 178t-167 113.5t-200.5 41t-200.5 -41t-166.5 -113.5t-113 -177.5t-42 -227zM723 1540l123 272h258v-30l-230 -242h-151z" unicode="Ó"/><glyph d="M66 717q0 155 56.5 293t155 238.5t239.5 159t302 58.5t302.5 -58.5t240.5 -159t156 -238.5t57 -293q0 -154 -57 -291.5t-156 -237.5t-240.5 -158.5t-302.5 -58.5q-215 0 -388 99.5t-269 270t-96 376.5zM297 717q0 -122 42 -226t113 -175.5t166 -111.5t201 -40 q105 0 200.5 40t167 111t114 176t42.5 226t-42.5 226.5t-114 178t-167 113.5t-200.5 41t-200.5 -41t-166.5 -113.5t-113 -177.5t-42 -227zM551 1540q117 192 168 272h203q51 -80 168 -272h-146q-121 115 -125 119l-123 -119h-145z" unicode="Ô"/><glyph d="M66 717q0 155 56.5 293t155 238.5t239.5 159t302 58.5t302.5 -58.5t240.5 -159t156 -238.5t57 -293q0 -154 -57 -291.5t-156 -237.5t-240.5 -158.5t-302.5 -58.5q-215 0 -388 99.5t-269 270t-96 376.5zM297 717q0 -122 42 -226t113 -175.5t166 -111.5t201 -40 q105 0 200.5 40t167 111t114 176t42.5 226t-42.5 226.5t-114 178t-167 113.5t-200.5 41t-200.5 -41t-166.5 -113.5t-113 -177.5t-42 -227zM545 1597q-4 97 42 143t118 46q48 0 119.5 -26.5t99.5 -26.5q36 0 54.5 11.5t31.5 35.5l86 -25q3 -92 -46 -140t-120 -48 q-43 0 -117.5 27.5t-97.5 27.5q-37 0 -54 -11t-30 -38z" unicode="Õ"/><glyph d="M66 717q0 155 56.5 293t155 238.5t239.5 159t302 58.5t302.5 -58.5t240.5 -159t156 -238.5t57 -293q0 -154 -57 -291.5t-156 -237.5t-240.5 -158.5t-302.5 -58.5q-215 0 -388 99.5t-269 270t-96 376.5zM297 717q0 -122 42 -226t113 -175.5t166 -111.5t201 -40 q105 0 200.5 40t167 111t114 176t42.5 226t-42.5 226.5t-114 178t-167 113.5t-200.5 41t-200.5 -41t-166.5 -113.5t-113 -177.5t-42 -227zM541 1677q0 51 32 85t78 34q51 0 85 -34t34 -85q0 -47 -34 -78.5t-85 -31.5q-46 0 -78 31.5t-32 78.5zM858 1677q0 51 33 85t82 34 q48 0 82.5 -34.5t34.5 -84.5q0 -47 -34.5 -78.5t-82.5 -31.5q-49 0 -82 31.5t-33 78.5z" unicode="Ö"/><glyph d="M123 942l127 129l256 -258l252 258l116 -117l-253 -256l258 -254l-127 -129l-256 256q-127 -127 -250 -256l-117 117l252 254z" horiz-adv-x="1001" unicode="×"/><glyph d="M66 717q0 155 56.5 293t155 238.5t239.5 159t302 58.5q164 0 303 -59l113 205l145 -78l-114 -205q146 -102 227.5 -262.5t81.5 -349.5q0 -154 -57 -291.5t-156 -237.5t-240.5 -158.5t-302.5 -58.5q-144 0 -280 49l-138 -249l-139 82l133 239q-155 100 -242 264t-87 361z M297 717q0 -139 53 -253t146 -188l528 957q-100 43 -205 43t-200.5 -41t-166.5 -113.5t-113 -177.5t-42 -227zM637 197q82 -33 182 -33q105 0 200.5 40t167 111t114 176t42.5 226q0 130 -48 239.5t-132 186.5z" unicode="Ø"/><glyph d="M147 502v936h218v-928q0 -149 87 -249.5t224 -100.5q138 0 226.5 101t88.5 249v928h215v-936q0 -104 -33.5 -198t-97 -169t-167.5 -119.5t-234 -44.5t-233 44.5t-165.5 119.5t-95.5 169t-33 198zM393 1782v30h258l123 -272h-151z" horiz-adv-x="1355" unicode="Ù"/><glyph d="M147 502v936h218v-928q0 -149 87 -249.5t224 -100.5q138 0 226.5 101t88.5 249v928h215v-936q0 -104 -33.5 -198t-97 -169t-167.5 -119.5t-234 -44.5t-233 44.5t-165.5 119.5t-95.5 169t-33 198zM561 1540l123 272h258v-30l-229 -242h-152z" horiz-adv-x="1355" unicode="Ú"/><glyph d="M147 502v936h218v-928q0 -149 87 -249.5t224 -100.5q138 0 226.5 101t88.5 249v928h215v-936q0 -104 -33.5 -198t-97 -169t-167.5 -119.5t-234 -44.5t-233 44.5t-165.5 119.5t-95.5 169t-33 198zM406 1540q145 237 167 272h203q51 -80 168 -272h-145q-121 115 -125 119 l-123 -119h-145z" horiz-adv-x="1355" unicode="Û"/><glyph d="M147 502v936h218v-928q0 -149 87 -249.5t224 -100.5q138 0 226.5 101t88.5 249v928h215v-936q0 -104 -33.5 -198t-97 -169t-167.5 -119.5t-234 -44.5t-233 44.5t-165.5 119.5t-95.5 169t-33 198zM391 1677q0 51 32.5 85t78.5 34q51 0 85 -34t34 -85q0 -47 -34 -78.5 t-85 -31.5q-46 0 -78.5 31.5t-32.5 78.5zM709 1677q0 51 32.5 85t81.5 34q48 0 82.5 -34.5t34.5 -84.5q0 -47 -34.5 -78.5t-82.5 -31.5q-49 0 -81.5 31.5t-32.5 78.5z" horiz-adv-x="1355" unicode="Ü"/><glyph d="M20 1438h254l344 -531l347 531h243l-487 -754v-684h-217v684zM504 1540l123 272h258v-30l-230 -242h-151z" horiz-adv-x="1228" unicode="Ý"/><glyph d="M164 0v1438h215v-207q27 2 76 2q277 0 438.5 -136.5t161.5 -371.5q0 -239 -165 -381.5t-441 -142.5q-45 0 -68 2v-203h-217zM381 393q27 -4 78 -4q180 0 280.5 95.5t100.5 240.5q0 141 -98 230t-273 89q-41 0 -88 -6v-645z" horiz-adv-x="1116" unicode="Þ"/><glyph d="M113 0v1116q0 161 99.5 259t256.5 98q82 0 152 -30.5t115 -79.5t71 -106t29 -114l-174 -342q121 -25 208.5 -129.5t87.5 -257.5q0 -147 -73.5 -251.5t-199 -146.5t-279.5 -16l26 170q85 -17 158 8t117.5 89.5t44.5 154.5q0 109 -71.5 180.5t-178.5 71.5q-30 0 -60 -6 q-17 20 -28 37l202 428q-2 65 -45 109t-108 44q-68 0 -109 -49t-41 -123v-1114h-200z" horiz-adv-x="1013" unicode="ß"/><glyph d="M51 250q0 125 92.5 207t237.5 82q87 0 168.5 -36t116.5 -75v47q-2 91 -62 155t-164 64q-51 0 -95.5 -10t-67 -19.5t-58.5 -27.5l-65 141q47 31 136 58t169 26q180 -3 287.5 -106t113.5 -295l-2 -461h-115l-69 106q-88 -133 -291 -133q-143 0 -237.5 80t-94.5 197z M207 1204v31h258l123 -272h-152zM252 258q0 -58 51.5 -98.5t122.5 -40.5q91 0 160 50.5t80 121.5v12q-37 41 -102 69t-138 27q-80 0 -127 -40.5t-47 -100.5z" horiz-adv-x="952" unicode="à"/><glyph d="M51 250q0 125 92.5 207t237.5 82q87 0 168.5 -36t116.5 -75v47q-2 91 -62 155t-164 64q-51 0 -95.5 -10t-67 -19.5t-58.5 -27.5l-65 141q47 31 136 58t169 26q180 -3 287.5 -106t113.5 -295l-2 -461h-115l-69 106q-88 -133 -291 -133q-143 0 -237.5 80t-94.5 197z M252 258q0 -58 51.5 -98.5t122.5 -40.5q91 0 160 50.5t80 121.5v12q-37 41 -102 69t-138 27q-80 0 -127 -40.5t-47 -100.5zM346 963l123 272h258v-31l-229 -241h-152z" horiz-adv-x="952" unicode="á"/><glyph d="M51 250q0 125 92.5 207t237.5 82q87 0 168.5 -36t116.5 -75v47q-2 91 -62 155t-164 64q-51 0 -95.5 -10t-67 -19.5t-58.5 -27.5l-65 141q47 31 136 58t169 26q180 -3 287.5 -106t113.5 -295l-2 -461h-115l-69 106q-88 -133 -291 -133q-143 0 -237.5 80t-94.5 197z M211 963q117 192 168 272h203q51 -80 168 -272h-146q-99 95 -125 118l-123 -118h-145zM252 258q0 -58 51.5 -98.5t122.5 -40.5q91 0 160 50.5t80 121.5v12q-37 41 -102 69t-138 27q-80 0 -127 -40.5t-47 -100.5z" horiz-adv-x="952" unicode="â"/><glyph d="M51 250q0 125 92.5 207t237.5 82q87 0 168.5 -36t116.5 -75v47q-2 91 -62 155t-164 64q-51 0 -95.5 -10t-67 -19.5t-58.5 -27.5l-65 141q47 31 136 58t169 26q180 -3 287.5 -106t113.5 -295l-2 -461h-115l-69 106q-88 -133 -291 -133q-143 0 -237.5 80t-94.5 197z M205 1020q-4 97 42 142.5t118 45.5q48 0 119.5 -26.5t99.5 -26.5q36 0 54.5 11.5t31.5 35.5l86 -24q3 -92 -46 -140.5t-120 -48.5q-43 0 -117.5 27.5t-97.5 27.5q-37 0 -54 -11t-30 -38zM252 258q0 -58 51.5 -98.5t122.5 -40.5q91 0 160 50.5t80 121.5v12q-37 41 -102 69 t-138 27q-80 0 -127 -40.5t-47 -100.5z" horiz-adv-x="952" unicode="ã"/><glyph d="M51 250q0 125 92.5 207t237.5 82q87 0 168.5 -36t116.5 -75v47q-2 91 -62 155t-164 64q-51 0 -95.5 -10t-67 -19.5t-58.5 -27.5l-65 141q47 31 136 58t169 26q180 -3 287.5 -106t113.5 -295l-2 -461h-115l-69 106q-88 -133 -291 -133q-143 0 -237.5 80t-94.5 197z M201 1100q0 51 32 85t78 34q51 0 85 -34t34 -85q0 -47 -34 -79t-85 -32q-46 0 -78 32t-32 79zM252 258q0 -58 51.5 -98.5t122.5 -40.5q91 0 160 50.5t80 121.5v12q-37 41 -102 69t-138 27q-80 0 -127 -40.5t-47 -100.5zM518 1100q0 51 33 85t82 34q48 0 82.5 -34.5 t34.5 -84.5q0 -47 -34.5 -79t-82.5 -32q-49 0 -82 32t-33 79z" horiz-adv-x="952" unicode="ä"/><glyph d="M51 250q0 125 92.5 207t237.5 82q87 0 168.5 -36t116.5 -75v47q-2 91 -62 155t-164 64q-51 0 -95.5 -10t-67 -19.5t-58.5 -27.5l-65 141q63 39 143 60q-59 65 -59 161q0 102 71.5 174t175.5 72q105 0 177.5 -72t72.5 -174q0 -107 -80 -180q94 -45 147.5 -136t57.5 -222 l-2 -461h-115l-69 106q-88 -133 -291 -133q-143 0 -237.5 80t-94.5 197zM252 258q0 -58 51.5 -98.5t122.5 -40.5q91 0 160 50.5t80 121.5v12q-37 41 -102 69t-138 27q-80 0 -127 -40.5t-47 -100.5zM360 999q0 -53 36 -91t89 -38q55 0 91 38t36 91q0 55 -36 92t-91 37 q-54 0 -89.5 -37.5t-35.5 -91.5z" horiz-adv-x="952" unicode="å"/><glyph d="M51 250q0 125 92.5 207t237.5 82q87 0 168.5 -36t116.5 -75v47q-2 91 -62 155t-164 64q-51 0 -95.5 -10t-67 -19.5t-58.5 -27.5l-65 141q47 31 136 58t169 26q210 -3 317 -141q60 68 145 105.5t181 37.5q79 0 152 -29.5t131 -83.5t93 -140t35 -191v-21h-643 q1 -117 91.5 -190.5t214.5 -73.5q135 0 258 74l79 -131q-63 -52 -165 -78.5t-201 -26.5q-118 0 -216.5 44.5t-164.5 123.5q-74 -98 -171 -133t-212 -35q-143 0 -237.5 80t-94.5 197zM252 258q0 -58 51.5 -98.5t122.5 -40.5q91 0 160 50.5t80 121.5v12q-37 41 -102 69 t-138 27q-80 0 -127 -40.5t-47 -100.5zM885 528h420q-8 77 -66 128t-137 51q-88 0 -148 -57.5t-69 -121.5z" horiz-adv-x="1574" unicode="æ"/><glyph d="M55 418q0 195 127.5 320.5t325.5 125.5q100 0 190.5 -38.5t153.5 -108.5l-107 -129q-94 112 -219 112q-115 0 -191.5 -77.5t-76.5 -204.5q0 -123 79.5 -201t194.5 -78q62 0 123 27t99 65l98 -118q-107 -107 -256 -133q61 -58 61 -140q0 -109 -81.5 -169t-194.5 -60 q-47 0 -94 12q0 54 4 160q33 -10 61 -10q56 0 95.5 29.5t39.5 82.5q0 62 -38 92q-178 20 -286 143.5t-108 297.5z" horiz-adv-x="894" unicode="ç"/><glyph d="M55 420q0 195 125.5 319.5t306.5 124.5q79 0 152 -29.5t131.5 -83.5t93.5 -140t35 -191v-21h-643q1 -117 91.5 -190.5t213.5 -73.5q135 0 258 74l80 -131q-63 -52 -165.5 -78.5t-201.5 -26.5q-205 0 -341 128t-136 319zM229 1204v31h258l123 -272h-151zM270 528h420 q-8 77 -66 128t-137 51q-88 0 -148 -57.5t-69 -121.5z" horiz-adv-x="960" unicode="è"/><glyph d="M55 420q0 195 125.5 319.5t306.5 124.5q79 0 152 -29.5t131.5 -83.5t93.5 -140t35 -191v-21h-643q1 -117 91.5 -190.5t213.5 -73.5q135 0 258 74l80 -131q-63 -52 -165.5 -78.5t-201.5 -26.5q-205 0 -341 128t-136 319zM270 528h420q-8 77 -66 128t-137 51 q-88 0 -148 -57.5t-69 -121.5zM356 963l123 272h258v-31l-229 -241h-152z" horiz-adv-x="960" unicode="é"/><glyph d="M55 420q0 195 125.5 319.5t306.5 124.5q79 0 152 -29.5t131.5 -83.5t93.5 -140t35 -191v-21h-643q1 -117 91.5 -190.5t213.5 -73.5q135 0 258 74l80 -131q-63 -52 -165.5 -78.5t-201.5 -26.5q-205 0 -341 128t-136 319zM217 963q117 192 168 272h203q51 -80 168 -272 h-146q-99 95 -125 118l-123 -118h-145zM270 528h420q-8 77 -66 128t-137 51q-88 0 -148 -57.5t-69 -121.5z" horiz-adv-x="960" unicode="ê"/><glyph d="M55 420q0 195 125.5 319.5t306.5 124.5q79 0 152 -29.5t131.5 -83.5t93.5 -140t35 -191v-21h-643q1 -117 91.5 -190.5t213.5 -73.5q135 0 258 74l80 -131q-63 -52 -165.5 -78.5t-201.5 -26.5q-205 0 -341 128t-136 319zM211 1100q0 51 32.5 85t78.5 34q51 0 84.5 -34 t33.5 -85q0 -47 -33.5 -79t-84.5 -32q-46 0 -78.5 32t-32.5 79zM270 528h420q-8 77 -66 128t-137 51q-88 0 -148 -57.5t-69 -121.5zM528 1100q0 51 33 85t82 34q48 0 82.5 -34.5t34.5 -84.5q0 -47 -34.5 -79t-82.5 -32q-49 0 -82 32t-33 79z" horiz-adv-x="960" unicode="ë"/><glyph d="M-53 1204v31h258l123 -272h-152zM129 0v838h197v-838h-197z" horiz-adv-x="456" unicode="ì"/><glyph d="M129 0v838h197v-838h-197zM129 963l123 272h258v-31l-229 -241h-152z" horiz-adv-x="456" unicode="í"/><glyph d="M-41 963q117 192 168 272h203q51 -80 168 -272h-146q-99 95 -125 118l-123 -118h-145zM129 0v838h197v-838h-197z" horiz-adv-x="456" unicode="î"/><glyph d="M-45 1100q0 51 32.5 85t78.5 34q51 0 84.5 -34t33.5 -85q0 -47 -33.5 -79t-84.5 -32q-46 0 -78.5 32t-32.5 79zM129 0v838h197v-838h-197zM272 1100q0 51 33 85t82 34q48 0 82.5 -34.5t34.5 -84.5q0 -47 -34.5 -79t-82.5 -32q-49 0 -82 32t-33 79z" horiz-adv-x="456" unicode="ï"/><glyph d="M55 416q0 197 127 322.5t326 125.5q72 0 142.5 -28t109.5 -86q-45 233 -217 385l-99 -136l-122 82l98 131q-131 76 -266 97l-21 24l55 131q180 -28 330 -116q46 64 96 129q21 -15 123 -88q-70 -93 -94 -121q340 -276 340 -791q0 -120 -37 -217t-101 -159t-148 -95 t-179 -33q-196 0 -329.5 124.5t-133.5 318.5zM260 416q0 -124 75.5 -202.5t180.5 -78.5q103 0 179.5 79t76.5 202q0 126 -74 206t-186 80q-111 0 -181.5 -79t-70.5 -207z" horiz-adv-x="1040" unicode="ð"/><glyph d="M113 0v838h110l80 -105q45 59 118 95t163 36q152 0 250 -98t98 -258v-508h-205v483q0 98 -58.5 156.5t-146.5 58.5q-78 0 -143.5 -58.5t-65.5 -154.5v-485h-200zM258 1020q-4 97 42 142.5t118 45.5q48 0 119.5 -26.5t99.5 -26.5q36 0 54.5 11.5t31.5 35.5l86 -24 q3 -92 -46 -140.5t-120 -48.5q-43 0 -117.5 27.5t-97.5 27.5q-37 0 -54 -11t-30 -38z" horiz-adv-x="1024" unicode="ñ"/><glyph d="M55 420q0 131 66.5 234.5t171 156.5t223.5 53q87 0 169 -31.5t146 -88t103 -141t39 -183.5q0 -131 -66.5 -235t-171 -158t-223.5 -54q-117 0 -220.5 54t-170 158t-66.5 235zM233 1204v31h259l122 -272h-151zM260 420q0 -127 74.5 -206t179.5 -79q106 0 180 79t74 206 t-75 204.5t-181 77.5t-179 -77t-73 -205z" horiz-adv-x="1030" unicode="ò"/><glyph d="M55 420q0 131 66.5 234.5t171 156.5t223.5 53q87 0 169 -31.5t146 -88t103 -141t39 -183.5q0 -131 -66.5 -235t-171 -158t-223.5 -54q-117 0 -220.5 54t-170 158t-66.5 235zM260 420q0 -127 74.5 -206t179.5 -79q106 0 180 79t74 206t-75 204.5t-181 77.5t-179 -77 t-73 -205zM391 963l123 272h258v-31l-229 -241h-152z" horiz-adv-x="1030" unicode="ó"/><glyph d="M55 420q0 131 66.5 234.5t171 156.5t223.5 53q87 0 169 -31.5t146 -88t103 -141t39 -183.5q0 -131 -66.5 -235t-171 -158t-223.5 -54q-117 0 -220.5 54t-170 158t-66.5 235zM244 963q117 192 168 272h202q51 -80 168 -272h-145q-100 95 -125 118l-123 -118h-145zM260 420 q0 -127 74.5 -206t179.5 -79q106 0 180 79t74 206t-75 204.5t-181 77.5t-179 -77t-73 -205z" horiz-adv-x="1030" unicode="ô"/><glyph d="M55 420q0 131 66.5 234.5t171 156.5t223.5 53q87 0 169 -31.5t146 -88t103 -141t39 -183.5q0 -131 -66.5 -235t-171 -158t-223.5 -54q-117 0 -220.5 54t-170 158t-66.5 235zM238 1020q-4 97 41.5 142.5t117.5 45.5q48 0 119.5 -26.5t99.5 -26.5q36 0 54.5 11.5t31.5 35.5 l86 -24q3 -92 -45.5 -140.5t-119.5 -48.5q-43 0 -117.5 27.5t-97.5 27.5q-37 0 -54 -11t-30 -38zM260 420q0 -127 74.5 -206t179.5 -79q106 0 180 79t74 206t-75 204.5t-181 77.5t-179 -77t-73 -205z" horiz-adv-x="1030" unicode="õ"/><glyph d="M55 420q0 131 66.5 234.5t171 156.5t223.5 53q87 0 169 -31.5t146 -88t103 -141t39 -183.5q0 -131 -66.5 -235t-171 -158t-223.5 -54q-117 0 -220.5 54t-170 158t-66.5 235zM231 1100q0 51 32.5 85t78.5 34q51 0 85 -34t34 -85q0 -47 -34 -79t-85 -32q-46 0 -78.5 32 t-32.5 79zM260 420q0 -127 74.5 -206t179.5 -79q106 0 180 79t74 206t-75 204.5t-181 77.5t-179 -77t-73 -205zM549 1100q0 51 33 85t82 34q48 0 82 -34.5t34 -84.5q0 -47 -34 -79t-82 -32q-49 0 -82 32t-33 79z" horiz-adv-x="1030" unicode="ö"/><glyph d="M82 610v178h811v-178h-811zM367 375q0 51 34.5 86t85.5 35t85 -35t34 -86q0 -52 -34 -85.5t-85 -33.5t-85.5 33.5t-34.5 85.5zM367 1032q0 52 34.5 87.5t85.5 35.5t85 -35t34 -88q0 -52 -33.5 -84.5t-85.5 -32.5t-86 32.5t-34 84.5z" horiz-adv-x="974" unicode="÷"/><glyph d="M55 420q0 131 66.5 234.5t171 156.5t223.5 53q79 0 158 -28l88 161l110 -53l-88 -164q87 -60 138 -152t51 -208q0 -131 -66.5 -235t-171 -158t-223.5 -54q-81 0 -154 27l-100 -186l-106 59l98 180q-90 59 -142.5 153.5t-52.5 213.5zM260 420q0 -130 76 -209l258 477 q-38 14 -82 14q-106 0 -179 -77t-73 -205zM438 147q37 -12 76 -12q106 0 180 79t74 206q0 126 -72 201z" horiz-adv-x="1030" unicode="ø"/><glyph d="M102 330v508h203v-484q0 -98 59.5 -156.5t145.5 -58.5q78 0 143.5 58t65.5 155v486h203v-838h-123l-70 102q-45 -58 -117.5 -93.5t-162.5 -35.5q-152 0 -249.5 98.5t-97.5 258.5zM236 1204v31h258l122 -272h-151z" horiz-adv-x="1034" unicode="ù"/><glyph d="M102 330v508h203v-484q0 -98 59.5 -156.5t145.5 -58.5q78 0 143.5 58t65.5 155v486h203v-838h-123l-70 102q-45 -58 -117.5 -93.5t-162.5 -35.5q-152 0 -249.5 98.5t-97.5 258.5zM403 963l123 272h258v-31l-229 -241h-152z" horiz-adv-x="1034" unicode="ú"/><glyph d="M102 330v508h203v-484q0 -68 47 -112q51 -103 158 -103q78 0 143.5 58t65.5 155v486h203v-838h-123l-70 102q-45 -58 -117.5 -93.5t-162.5 -35.5q-152 0 -249.5 98.5t-97.5 258.5zM244 963q117 192 168 272h202q51 -80 168 -272h-145q-100 95 -125 118l-123 -118h-145z" horiz-adv-x="1034" unicode="û"/><glyph d="M102 330v508h203v-484q0 -98 59.5 -156.5t145.5 -58.5q78 0 143.5 58t65.5 155v486h203v-838h-123l-70 102q-45 -58 -117.5 -93.5t-162.5 -35.5q-152 0 -249.5 98.5t-97.5 258.5zM223 1100q0 51 32.5 85t78.5 34q51 0 85 -34t34 -85q0 -47 -34 -79t-85 -32 q-46 0 -78.5 32t-32.5 79zM541 1100q0 51 32.5 85t81.5 34q48 0 82.5 -34.5t34.5 -84.5q0 -47 -34.5 -79t-82.5 -32q-49 0 -81.5 32t-32.5 79z" horiz-adv-x="1034" unicode="ü"/><glyph d="M20 838h224l245 -525l250 525h209l-637 -1354h-196l-19 20l285 582zM391 963l123 272h258v-31l-229 -241h-152z" horiz-adv-x="974" unicode="ý"/><glyph d="M113 -512v1950l182 24h18v-741q42 64 124.5 103.5t170.5 39.5q180 0 299 -125.5t119 -320.5t-121 -320t-301 -125q-89 0 -171 40t-120 104v-602l-182 -27h-18zM315 414q0 -122 74 -200.5t180 -78.5q107 0 179.5 78.5t72.5 204.5q0 125 -73 204.5t-179 79.5t-178.5 -73.5 t-75.5 -198.5v-16z" horiz-adv-x="1083" unicode="þ"/><glyph d="M20 838h224l245 -525l250 525h209l-637 -1354h-196l-19 20l285 582zM215 1100q0 51 32.5 85t78.5 34q51 0 84.5 -34t33.5 -85q0 -47 -33.5 -79t-84.5 -32q-46 0 -78.5 32t-32.5 79zM532 1100q0 51 33 85t82 34q48 0 82.5 -34.5t34.5 -84.5q0 -47 -34.5 -79t-82.5 -32 q-49 0 -82 32t-33 79z" horiz-adv-x="974" unicode="ÿ"/><glyph d="M66 719q0 61 11 126t38 138t68.5 139.5t107 128t148.5 106.5t198.5 72t251.5 27q112 0 244 -18h667v-183h-583v-354h471v-182h-471v-539h610v-180h-694q-126 -20 -244 -20q-136 0 -252.5 27.5t-199 73t-148.5 108t-107 129.5t-68 140.5t-37.5 137t-10.5 123.5zM301 719 q0 -129 46.5 -234t126 -174t185.5 -106t226 -37q64 0 116 8v1079q-65 11 -131 11q-132 0 -241 -45.5t-180 -121.5t-109.5 -174t-38.5 -206z" horiz-adv-x="1939" unicode="Œ"/><glyph d="M55 420q0 131 66.5 234.5t171 156.5t223.5 53q100 0 193 -41t159 -116q61 74 148.5 115.5t187.5 41.5q79 0 152 -29.5t131.5 -83.5t93.5 -140t35 -191v-21h-643q1 -117 91.5 -190.5t213.5 -73.5q135 0 258 74l80 -131q-63 -52 -165.5 -78.5t-201.5 -26.5 q-116 0 -213.5 43.5t-163.5 120.5q-66 -78 -161.5 -121t-198.5 -43q-117 0 -220.5 54t-170 158t-66.5 235zM260 420q0 -127 74.5 -206t179.5 -79q106 0 180 79t74 206t-75 204.5t-181 77.5t-179 -77t-73 -205zM987 528h420q-8 77 -66 128t-137 51q-88 0 -148 -57.5 t-69 -121.5z" horiz-adv-x="1677" unicode="œ"/><glyph d="M20 1438h254l344 -531l347 531h243l-487 -754v-684h-217v684zM334 1677q0 51 32 85t78 34q51 0 85 -34t34 -85q0 -47 -34 -78.5t-85 -31.5q-46 0 -78 31.5t-32 78.5zM651 1677q0 51 33 85t82 34q48 0 82.5 -34.5t34.5 -84.5q0 -47 -34.5 -78.5t-82.5 -31.5 q-49 0 -82 31.5t-33 78.5z" horiz-adv-x="1228" unicode="Ÿ"/><glyph d="M61 963q117 192 168 272h203q51 -80 168 -272h-145q-99 95 -125 118l-123 -118h-146z" horiz-adv-x="661" unicode="ˆ"/><glyph d="M63 1020q-4 97 42 142.5t118 45.5q48 0 119.5 -26.5t99.5 -26.5q36 0 54.5 11.5t31.5 35.5l86 -24q3 -92 -45.5 -140.5t-119.5 -48.5q-43 0 -118 27.5t-98 27.5q-37 0 -53.5 -10.5t-29.5 -38.5z" horiz-adv-x="677" unicode="˜"/><glyph horiz-adv-x="911"/><glyph horiz-adv-x="1823"/><glyph horiz-adv-x="911"/><glyph horiz-adv-x="1823"/><glyph horiz-adv-x="607"/><glyph horiz-adv-x="455"/><glyph horiz-adv-x="303"/><glyph horiz-adv-x="303"/><glyph horiz-adv-x="227"/><glyph horiz-adv-x="364"/><glyph horiz-adv-x="101"/><glyph d="M82 346v189l543 79v-188z" horiz-adv-x="706" unicode="‐"/><glyph d="M82 346v189l543 79v-188z" horiz-adv-x="706" unicode="‑"/><glyph d="M82 346v189l543 79v-188z" horiz-adv-x="706" unicode="‒"/><glyph d="M82 418v178h815v-178h-815z" horiz-adv-x="978" unicode="–"/><glyph d="M82 418v178h1384v-178h-1384z" horiz-adv-x="1548" unicode="—"/><glyph d="M76 891l256 569l74 -18l-74 -582h-254z" horiz-adv-x="528" unicode="‘"/><glyph d="M111 856l73 582h254l2 -31l-256 -569z" horiz-adv-x="528" unicode="’"/><glyph d="M86 -313l74 581h254l2 -30l-256 -570z" horiz-adv-x="528" unicode="‚"/><glyph d="M76 891l256 569l74 -18l-74 -582h-254zM446 891l256 569l74 -18l-74 -582h-253z" horiz-adv-x="897" unicode="“"/><glyph d="M111 856l73 582h254l2 -31l-256 -569zM481 856l74 582h254l2 -31l-256 -569z" horiz-adv-x="897" unicode="”"/><glyph d="M86 -313l74 581h254l2 -30l-256 -570zM461 -313l74 581h253l3 -30l-256 -570z" horiz-adv-x="903" unicode="„"/><glyph d="M143 502q0 89 60.5 152t150.5 63q88 0 151.5 -63.5t63.5 -151.5q0 -90 -63 -150.5t-152 -60.5q-91 0 -151 60t-60 151z" horiz-adv-x="712" unicode="•"/><glyph d="M113 127q0 63 43 107.5t104 44.5q63 0 107.5 -44.5t44.5 -107.5q0 -64 -44 -105.5t-108 -41.5q-62 0 -104.5 41.5t-42.5 105.5zM637 127q0 63 43 107.5t104 44.5q63 0 107.5 -44.5t44.5 -107.5q0 -64 -44 -105.5t-108 -41.5q-62 0 -104.5 41.5t-42.5 105.5zM1165 127 q0 63 43.5 107.5t104.5 44.5q63 0 107 -44.5t44 -107.5q0 -64 -43.5 -105.5t-107.5 -41.5q-62 0 -105 41.5t-43 105.5z" horiz-adv-x="1576" unicode="…"/><glyph horiz-adv-x="364"/><glyph d="M61 406v32l416 453l135 -105l-323 -360l323 -350l-139 -109z" horiz-adv-x="704" unicode="‹"/><glyph d="M92 72l324 360l-324 350l139 109l412 -438v-33l-416 -453z" horiz-adv-x="704" unicode="›"/><glyph horiz-adv-x="455"/><glyph d="M0 451v20l14 115h172q-4 62 -4 82q0 17 4 71h-145v21l14 117h158q64 219 248.5 352t421.5 133q285 0 506 -193l-129 -141q-36 32 -66 53.5t-77 48t-102.5 40.5t-117.5 14q-153 0 -272.5 -85t-169.5 -222h610v-21l-16 -117h-637q-4 -54 -4 -69q0 -38 6 -84h610v-21 l-16 -114h-551q50 -132 172.5 -215.5t275.5 -83.5q210 0 375 137l119 -129q-98 -90 -217 -139.5t-295 -49.5q-239 0 -421 132.5t-249 347.5h-217z" horiz-adv-x="1456" unicode="€"/><glyph d="M72 1307v131h616v-131h-235v-652h-148v652h-233zM793 655v783l28 8l336 -365l354 365l29 -8v-783h-143v484l-230 -242h-14l-215 227v-469h-145z" unicode="™"/><glyph d="M0 0v840h840v-840h-840z" horiz-adv-x="839" unicode="◼"/></font>
</defs>
</svg>
